<?xml version="1.0" encoding="utf-8"?><svg version="1.1" xmlns="http://www.w3.org/2000/svg" xmlns:xlink="http://www.w3.org/1999/xlink" x="0px" y="0px" viewBox="0 0 1610.982 475.205" enable-background="new 0 0 1610.982 475.205" xml:space="preserve"><path fill="#FFFFFF" d="M432.604,7.2l26.4,461.405h-84.602l-8.399-179.402c-2.4-60.601-5.4-135.001-4.801-181.802h-1.8c-13.2,55.201-30,116.401-45.601,168.001l-56.4,186.602h-67.2l-51.001-183.602c-15-52.2-29.4-114.601-40.2-171.001h-1.8c-1.2,58.201-4.2,126.601-7.2,183.602l-9,177.602H0L31.2,7.2h109.801l49.801,173.402c15,55.801,28.2,109.801,38.4,162.602h1.8c10.801-51.601,24.601-107.401,40.201-162.602L323.403,7.2H432.604z"/><path fill="#FFFFFF" d="M815.998,7.2v76.801H701.997v384.604h-88.801V84.001H499.795V7.2H815.998z"/><path fill="#FFFFFF" d="M1232.392,232.203c0,160.802-81.601,243.002-196.202,243.002c-121.801,0-190.802-102.001-190.802-235.802C845.388,101.401,921.589,0,1042.189,0C1169.991,0,1232.392,109.201,1232.392,232.203z M938.389,237.603c0,90.601,35.4,165.001,100.801,165.001c66.001,0,100.201-73.801,100.201-166.801c0-84.601-31.8-163.202-99.601-163.202C970.189,72.601,938.389,153.002,938.389,237.603z"/><path fill="#FFFFFF" d="M1300.179,13.2c30.601-5.4,73.801-9.6,118.802-9.6c58.2,0,175.802,7.2,175.802,130.801c0,56.401-36,97.801-79.201,114.602v1.8c32.4,12.6,50.4,43.8,61.201,90.601c13.2,54.601,25.2,109.801,34.2,127.201h-91.201c-6.6-13.2-18-53.4-28.8-109.201c-12-59.4-30.601-78.001-72.601-78.001h-30.001v187.202h-88.201V13.2z M1388.38,215.402h36.601c50.4,0,81.001-29.4,81.001-73.201c0-59.4-44.4-70.801-76.801-70.801c-19.801,0-33.601,1.2-40.801,3.6V215.402z"/></svg>